<svg version="1.1" id="Layer_1" xmlns="http://www.w3.org/2000/svg" xmlns:xlink="http://www.w3.org/1999/xlink" x="0px" y="0px"
	 width="100%" viewBox="0 0 820 459" enable-background="new 0 0 820 459" xml:space="preserve">
<path fill="#FFFEFE" opacity="1.000000" stroke="none" 
	d="
M594.000000,460.000000 
	C396.000000,460.000000 198.500000,460.000000 1.000000,460.000000 
	C1.000000,307.000000 1.000000,154.000000 1.000000,1.000000 
	C274.333344,1.000000 547.666687,1.000000 821.000000,1.000000 
	C821.000000,154.000000 821.000000,307.000000 821.000000,460.000000 
	C745.500000,460.000000 670.000000,460.000000 594.000000,460.000000 
M186.357071,257.880157 
	C186.085327,259.182831 185.810699,260.484955 185.542236,261.788300 
	C179.532883,290.962708 173.028610,320.098419 172.818161,350.064331 
	C172.756836,358.799347 173.462646,367.810303 175.609940,376.237885 
	C181.296005,398.553955 197.816910,409.601105 218.951019,414.979706 
	C244.589218,421.504608 270.727478,421.525604 296.898682,420.416260 
	C316.781830,419.573425 336.186646,416.202667 354.904449,409.061493 
	C387.357544,396.680023 401.838837,371.131836 406.911102,338.677704 
	C407.942505,332.078552 404.840668,328.374023 398.060059,327.240631 
	C394.633209,326.667877 391.089539,326.643402 387.597961,326.633759 
	C368.269684,326.580231 348.940460,326.709015 329.612885,326.580078 
	C308.273956,326.437714 302.466522,331.212311 298.849274,352.062256 
	C298.258728,355.466400 297.375275,358.926483 295.955536,362.056000 
	C293.605988,367.235016 286.774353,369.304626 280.379059,367.252930 
	C275.938171,365.828247 274.850800,363.097778 276.137665,356.111938 
	C277.402863,349.243835 278.766052,342.393646 280.110596,335.540344 
	C282.244232,324.664948 284.398163,313.793518 286.571869,302.776611 
	C288.830963,302.776611 290.655151,302.776642 292.479340,302.776642 
	C322.638367,302.776642 352.805847,302.337860 382.953796,302.915649 
	C406.994934,303.376404 419.469727,288.098969 423.658325,271.664368 
	C428.895905,251.113708 431.834991,230.195496 431.168182,208.897156 
	C430.233276,179.036026 417.357239,161.498886 388.306213,154.088303 
	C348.812714,144.013962 308.801544,144.213333 269.031982,152.707581 
	C237.524826,159.437103 215.189270,178.322998 203.003296,208.042328 
	C196.478607,223.954758 192.034241,240.720184 186.357071,257.880157 
M603.023010,363.457642 
	C606.663818,350.637054 599.837402,341.148743 585.468079,341.850525 
	C571.420044,342.536591 557.312256,341.999817 542.498657,341.999817 
	C543.770203,339.813141 544.651550,338.270905 545.557556,336.743256 
	C574.472290,287.990753 603.396667,239.243927 632.290100,190.478851 
	C634.235779,187.195145 636.242615,183.898438 637.724792,180.397675 
	C645.258545,162.603363 638.287109,152.151154 618.977112,152.069122 
	C618.810486,152.068420 618.643860,152.068970 618.477234,152.068970 
	C571.990173,152.068939 525.503052,152.061111 479.015991,152.073883 
	C465.813049,152.077499 456.682526,159.649551 454.132874,172.683853 
	C451.994446,183.615936 449.932220,194.562958 447.783203,205.492935 
	C445.014404,219.574982 450.990479,226.957230 465.252045,226.966583 
	C481.352875,226.977142 497.453735,226.969025 514.265076,226.969025 
	C512.974304,229.020248 512.049316,230.524994 511.090912,232.008133 
	C480.491577,279.361267 449.818268,326.666931 419.380249,374.123535 
	C415.743469,379.793701 412.726990,386.061859 410.577240,392.441772 
	C406.736298,403.840698 412.110016,412.696014 423.883301,415.147766 
	C428.073944,416.020447 432.471527,416.178680 436.775360,416.185455 
	C481.596130,416.255829 526.417053,416.232178 571.237915,416.226868 
	C586.309998,416.225098 594.248230,409.498016 596.988708,394.666534 
	C598.861816,384.529327 600.937134,374.429474 603.023010,363.457642 
M160.779190,285.197876 
	C166.340805,256.477966 171.996552,227.775803 177.412567,199.028458 
	C179.285797,189.085693 181.058105,179.074448 181.948257,169.012375 
	C182.600220,161.642654 178.878555,157.272018 171.766663,154.922760 
	C168.948471,153.991837 165.961304,153.059830 163.042053,153.030670 
	C143.918472,152.839767 124.756737,152.158508 105.677368,153.081833 
	C87.116074,153.980072 79.433769,161.956970 75.931503,180.039001 
	C66.133858,230.623749 56.180614,281.178345 46.343128,331.755432 
	C42.344643,352.312683 38.323170,372.867859 34.623550,393.479919 
	C32.248707,406.711182 36.487255,414.091675 49.864723,415.061218 
	C70.544289,416.560089 91.407890,416.507568 112.151367,415.828247 
	C129.110046,415.272827 136.805405,407.478516 140.086395,390.746948 
	C146.930817,355.843323 153.743179,320.933380 160.779190,285.197876 
M755.530884,258.018127 
	C760.874084,230.592377 766.243591,203.171722 771.554077,175.739639 
	C778.824280,138.184189 786.203308,100.648735 793.217224,63.045303 
	C795.958374,48.349442 790.748230,40.901722 775.915283,40.217678 
	C755.665222,39.283817 735.307373,39.173351 715.061951,40.122505 
	C698.442810,40.901646 691.125427,48.567810 687.929810,64.901924 
	C676.337891,124.152496 664.727478,183.399506 653.221313,242.666733 
	C650.591980,256.210388 647.718811,269.755920 646.127258,283.436615 
	C644.787720,294.950928 649.160889,300.352570 660.727173,301.977936 
	C682.743958,305.071899 704.888794,304.717712 726.962585,302.195038 
	C740.575317,300.639252 748.460938,292.618835 751.234863,279.392761 
	C752.668396,272.557892 753.947632,265.690674 755.530884,258.018127 
M179.627487,41.840767 
	C168.222595,33.522415 155.543076,30.328320 141.492889,31.850809 
	C112.113029,35.034435 91.561432,62.555054 95.945427,93.091492 
	C99.969315,121.119537 128.756958,141.884674 156.589478,136.529770 
	C178.949005,132.227844 193.880356,119.035881 199.333389,96.910706 
	C204.738098,74.981651 197.638397,56.602051 179.627487,41.840767 
M633.152588,394.225281 
	C633.796753,395.575348 634.398254,396.947784 635.091553,398.272156 
	C647.489563,421.953644 675.787781,432.645020 700.819336,423.115509 
	C725.744202,413.626617 739.782837,387.018372 733.409302,361.345947 
	C725.952759,331.311615 695.383240,313.975220 666.071411,323.157715 
	C636.691162,332.361664 621.764709,364.029572 633.152588,394.225281 
z"/>
<path fill="#010101" opacity="1.000000" stroke="none" 
	d="
M186.504074,257.490417 
	C192.034241,240.720184 196.478607,223.954758 203.003296,208.042328 
	C215.189270,178.322998 237.524826,159.437103 269.031982,152.707581 
	C308.801544,144.213333 348.812714,144.013962 388.306213,154.088303 
	C417.357239,161.498886 430.233276,179.036026 431.168182,208.897156 
	C431.834991,230.195496 428.895905,251.113708 423.658325,271.664368 
	C419.469727,288.098969 406.994934,303.376404 382.953796,302.915649 
	C352.805847,302.337860 322.638367,302.776642 292.479340,302.776642 
	C290.655151,302.776642 288.830963,302.776611 286.571869,302.776611 
	C284.398163,313.793518 282.244232,324.664948 280.110596,335.540344 
	C278.766052,342.393646 277.402863,349.243835 276.137665,356.111938 
	C274.850800,363.097778 275.938171,365.828247 280.379059,367.252930 
	C286.774353,369.304626 293.605988,367.235016 295.955536,362.056000 
	C297.375275,358.926483 298.258728,355.466400 298.849274,352.062256 
	C302.466522,331.212311 308.273956,326.437714 329.612885,326.580078 
	C348.940460,326.709015 368.269684,326.580231 387.597961,326.633759 
	C391.089539,326.643402 394.633209,326.667877 398.060059,327.240631 
	C404.840668,328.374023 407.942505,332.078552 406.911102,338.677704 
	C401.838837,371.131836 387.357544,396.680023 354.904449,409.061493 
	C336.186646,416.202667 316.781830,419.573425 296.898682,420.416260 
	C270.727478,421.525604 244.589218,421.504608 218.951019,414.979706 
	C197.816910,409.601105 181.296005,398.553955 175.609940,376.237885 
	C173.462646,367.810303 172.756836,358.799347 172.818161,350.064331 
	C173.028610,320.098419 179.532883,290.962708 185.542236,261.788300 
	C185.810699,260.484955 186.085327,259.182831 186.504074,257.490417 
M302.280151,221.800781 
	C299.650787,235.640457 297.021423,249.480148 294.338715,263.600800 
	C301.746246,263.600800 308.800446,263.600800 316.245209,263.600800 
	C319.569550,245.840607 323.196167,228.292969 326.017242,210.616776 
	C327.410919,201.884354 322.706177,198.410202 313.982025,200.314224 
	C309.222595,201.352982 306.416931,204.417450 305.151917,208.827805 
	C304.011688,212.803162 303.376312,216.923309 302.280151,221.800781 
z"/>
<path fill="#010101" opacity="1.000000" stroke="none" 
	d="
M602.972534,363.885315 
	C600.937134,374.429474 598.861816,384.529327 596.988708,394.666534 
	C594.248230,409.498016 586.309998,416.225098 571.237915,416.226868 
	C526.417053,416.232178 481.596130,416.255829 436.775360,416.185455 
	C432.471527,416.178680 428.073944,416.020447 423.883301,415.147766 
	C412.110016,412.696014 406.736298,403.840698 410.577240,392.441772 
	C412.726990,386.061859 415.743469,379.793701 419.380249,374.123535 
	C449.818268,326.666931 480.491577,279.361267 511.090912,232.008133 
	C512.049316,230.524994 512.974304,229.020248 514.265076,226.969025 
	C497.453735,226.969025 481.352875,226.977142 465.252045,226.966583 
	C450.990479,226.957230 445.014404,219.574982 447.783203,205.492935 
	C449.932220,194.562958 451.994446,183.615936 454.132874,172.683853 
	C456.682526,159.649551 465.813049,152.077499 479.015991,152.073883 
	C525.503052,152.061111 571.990173,152.068939 618.477234,152.068970 
	C618.643860,152.068970 618.810486,152.068420 618.977112,152.069122 
	C638.287109,152.151154 645.258545,162.603363 637.724792,180.397675 
	C636.242615,183.898438 634.235779,187.195145 632.290100,190.478851 
	C603.396667,239.243927 574.472290,287.990753 545.557556,336.743256 
	C544.651550,338.270905 543.770203,339.813141 542.498657,341.999817 
	C557.312256,341.999817 571.420044,342.536591 585.468079,341.850525 
	C599.837402,341.148743 606.663818,350.637054 602.972534,363.885315 
z"/>
<path fill="#010101" opacity="1.000000" stroke="none" 
	d="
M160.673965,285.611938 
	C153.743179,320.933380 146.930817,355.843323 140.086395,390.746948 
	C136.805405,407.478516 129.110046,415.272827 112.151367,415.828247 
	C91.407890,416.507568 70.544289,416.560089 49.864723,415.061218 
	C36.487255,414.091675 32.248707,406.711182 34.623550,393.479919 
	C38.323170,372.867859 42.344643,352.312683 46.343128,331.755432 
	C56.180614,281.178345 66.133858,230.623749 75.931503,180.039001 
	C79.433769,161.956970 87.116074,153.980072 105.677368,153.081833 
	C124.756737,152.158508 143.918472,152.839767 163.042053,153.030670 
	C165.961304,153.059830 168.948471,153.991837 171.766663,154.922760 
	C178.878555,157.272018 182.600220,161.642654 181.948257,169.012375 
	C181.058105,179.074448 179.285797,189.085693 177.412567,199.028458 
	C171.996552,227.775803 166.340805,256.477966 160.673965,285.611938 
z"/>
<path fill="#FF6801" opacity="1.000000" stroke="none" 
	d="
M755.413696,258.428101 
	C753.947632,265.690674 752.668396,272.557892 751.234863,279.392761 
	C748.460938,292.618835 740.575317,300.639252 726.962585,302.195038 
	C704.888794,304.717712 682.743958,305.071899 660.727173,301.977936 
	C649.160889,300.352570 644.787720,294.950928 646.127258,283.436615 
	C647.718811,269.755920 650.591980,256.210388 653.221313,242.666733 
	C664.727478,183.399506 676.337891,124.152496 687.929810,64.901924 
	C691.125427,48.567810 698.442810,40.901646 715.061951,40.122505 
	C735.307373,39.173351 755.665222,39.283817 775.915283,40.217678 
	C790.748230,40.901722 795.958374,48.349442 793.217224,63.045303 
	C786.203308,100.648735 778.824280,138.184189 771.554077,175.739639 
	C766.243591,203.171722 760.874084,230.592377 755.413696,258.428101 
z"/>
<path fill="#010101" opacity="1.000000" stroke="none" 
	d="
M179.926880,42.036453 
	C197.638397,56.602051 204.738098,74.981651 199.333389,96.910706 
	C193.880356,119.035881 178.949005,132.227844 156.589478,136.529770 
	C128.756958,141.884674 99.969315,121.119537 95.945427,93.091492 
	C91.561432,62.555054 112.113029,35.034435 141.492889,31.850809 
	C155.543076,30.328320 168.222595,33.522415 179.926880,42.036453 
z"/>
<path fill="#FF6801" opacity="1.000000" stroke="none" 
	d="
M633.036133,393.858704 
	C621.764709,364.029572 636.691162,332.361664 666.071411,323.157715 
	C695.383240,313.975220 725.952759,331.311615 733.409302,361.345947 
	C739.782837,387.018372 725.744202,413.626617 700.819336,423.115509 
	C675.787781,432.645020 647.489563,421.953644 635.091553,398.272156 
	C634.398254,396.947784 633.796753,395.575348 633.036133,393.858704 
z"/>
<path fill="#FBFBFB" opacity="1.000000" stroke="none" 
	d="
M302.399231,221.390198 
	C303.376312,216.923309 304.011688,212.803162 305.151917,208.827805 
	C306.416931,204.417450 309.222595,201.352982 313.982025,200.314224 
	C322.706177,198.410202 327.410919,201.884354 326.017242,210.616776 
	C323.196167,228.292969 319.569550,245.840607 316.245209,263.600800 
	C308.800446,263.600800 301.746246,263.600800 294.338715,263.600800 
	C297.021423,249.480148 299.650787,235.640457 302.399231,221.390198 
z"/>
</svg>