<svg version="1.1" id="Layer_1" xmlns="http://www.w3.org/2000/svg" xmlns:xlink="http://www.w3.org/1999/xlink" x="0px" y="0px"
	 width="100%" viewBox="0 0 560 282" enable-background="new 0 0 560 282" xml:space="preserve">
<path fill="#FFFFFF" opacity="1.000000" stroke="none" 
	d="
M561.000000,25.000000 
	C561.000000,110.976860 561.000000,196.953720 561.000000,282.965271 
	C374.406708,282.965271 187.813431,282.965271 1.110068,282.965271 
	C1.110068,189.098785 1.110068,95.197411 1.110068,1.000000 
	C167.023209,1.000000 333.046600,1.000000 499.390442,1.358230 
	C491.382263,2.790375 485.775696,7.119503 483.935303,15.486674 
	C481.740509,25.465084 479.784637,35.496559 477.774445,45.514915 
	C474.163513,63.510933 470.580933,81.512650 467.002319,99.515121 
	C463.771759,115.766777 460.340485,131.982864 457.417084,148.289825 
	C455.261536,160.313385 453.790405,172.459366 451.995178,184.547943 
	C451.337189,188.978806 453.947174,191.848831 457.288055,193.516769 
	C460.245697,194.993423 463.815552,195.829773 467.135162,195.892899 
	C480.628021,196.149475 494.162384,196.591888 507.616241,195.824005 
	C519.740906,195.131989 526.942505,192.052750 529.788940,179.945404 
	C533.801697,162.876724 536.637939,145.532074 540.006836,128.311218 
	C542.938293,113.326225 545.974121,98.361397 548.846191,83.365112 
	C551.323608,70.429176 553.491516,57.432667 556.080261,44.519878 
	C557.397644,37.948589 559.340088,31.502619 561.000000,25.000000 
M440.451599,237.049881 
	C439.354095,245.783813 441.185913,254.067368 445.938568,261.259644 
	C454.886475,274.800629 467.374298,281.358185 484.022919,279.045471 
	C507.469727,275.788361 520.639893,255.778564 516.633423,233.754547 
	C512.216431,209.474075 488.913635,197.298965 465.437347,205.070770 
	C452.318512,209.413727 441.133820,222.521683 440.451599,237.049881 
z"/>
<path fill="#FF6700" opacity="1.000000" stroke="none" 
	d="
M561.000000,24.532063 
	C559.340088,31.502619 557.397644,37.948589 556.080261,44.519878 
	C553.491516,57.432667 551.323608,70.429176 548.846191,83.365112 
	C545.974121,98.361397 542.938293,113.326225 540.006836,128.311218 
	C536.637939,145.532074 533.801697,162.876724 529.788940,179.945404 
	C526.942505,192.052750 519.740906,195.131989 507.616241,195.824005 
	C494.162384,196.591888 480.628021,196.149475 467.135162,195.892899 
	C463.815552,195.829773 460.245697,194.993423 457.288055,193.516769 
	C453.947174,191.848831 451.337189,188.978806 451.995178,184.547943 
	C453.790405,172.459366 455.261536,160.313385 457.417084,148.289825 
	C460.340485,131.982864 463.771759,115.766777 467.002319,99.515121 
	C470.580933,81.512650 474.163513,63.510933 477.774445,45.514915 
	C479.784637,35.496559 481.740509,25.465084 483.935303,15.486674 
	C485.775696,7.119503 491.382263,2.790375 499.855469,1.358230 
	C516.354248,1.000000 532.708435,1.000000 549.669861,1.353761 
	C553.851379,3.471683 557.425659,5.235845 561.000000,7.000003 
	C561.000000,12.688041 561.000000,18.376081 561.000000,24.532063 
z"/>
<path fill="#FFFFFF" opacity="1.000000" stroke="none" 
	d="
M561.000000,6.500532 
	C557.425659,5.235845 553.851379,3.471683 550.138550,1.353761 
	C553.555786,1.000000 557.111572,1.000000 561.000000,1.000000 
	C561.000000,2.660552 561.000000,4.330804 561.000000,6.500532 
z"/>
<path fill="#FF6700" opacity="1.000000" stroke="none" 
	d="
M440.685120,236.671387 
	C441.133820,222.521683 452.318512,209.413727 465.437347,205.070770 
	C488.913635,197.298965 512.216431,209.474075 516.633423,233.754547 
	C520.639893,255.778564 507.469727,275.788361 484.022919,279.045471 
	C467.374298,281.358185 454.886475,274.800629 445.938568,261.259644 
	C441.185913,254.067368 439.354095,245.783813 440.685120,236.671387 
z"/>
</svg>